<svg width="100" height="100" viewBox="0 0 100 100" fill="none" xmlns="http://www.w3.org/2000/svg">
<path d="M50 98C76.5097 98 98 76.5097 98 50C98 23.4903 76.5097 2 50 2C23.4903 2 2 23.4903 2 50C2 76.5097 23.4903 98 50 98Z" fill="#5792C9"/>
<path d="M50 25.5C36.469 25.5 25.5 36.469 25.5 50C25.5 63.531 36.469 74.5 50 74.5C63.531 74.5 74.5 63.531 74.5 50C74.5 36.469 63.531 25.5 50 25.5ZM64.5495 64.5495C62.6585 66.4405 60.4575 67.9245 58.008 68.961C57.3855 69.224 56.7535 69.4555 56.113 69.6545V65.9825C56.113 64.0525 55.451 62.633 54.127 61.724C54.9565 61.644 55.718 61.5325 56.412 61.389C57.106 61.2455 57.8395 61.038 58.613 60.7665C59.3865 60.495 60.0805 60.172 60.6945 59.7975C61.3085 59.4225 61.899 58.936 62.465 58.338C63.031 57.74 63.506 57.062 63.8885 56.3045C64.271 55.547 64.5745 54.6375 64.7975 53.577C65.0205 52.5165 65.1325 51.348 65.1325 50.072C65.1325 47.5995 64.327 45.4945 62.716 43.7555C63.4495 41.8415 63.37 39.76 62.477 37.511L61.8785 37.4395C61.464 37.3915 60.718 37.567 59.6415 37.966C58.565 38.365 57.3565 39.0185 56.017 39.928C54.1185 39.4015 52.149 39.1385 50.107 39.1385C48.0495 39.1385 46.0875 39.4015 44.221 39.928C43.376 39.3535 42.574 38.8795 41.8165 38.5045C41.059 38.1295 40.453 37.8745 39.998 37.7385C39.5435 37.603 39.121 37.519 38.73 37.487C38.339 37.455 38.088 37.4475 37.9765 37.463C37.865 37.4785 37.785 37.495 37.7375 37.511C36.844 39.776 36.7645 41.858 37.4985 43.7555C35.8875 45.494 35.082 47.5995 35.082 50.072C35.082 51.348 35.1935 52.5165 35.417 53.577C35.6405 54.6375 35.9435 55.547 36.326 56.3045C36.7085 57.062 37.1835 57.74 37.7495 58.338C38.3155 58.936 38.906 59.4225 39.52 59.7975C40.134 60.173 40.828 60.4955 41.6015 60.7665C42.375 61.038 43.1085 61.245 43.8025 61.389C44.4965 61.5325 45.258 61.6445 46.0875 61.724C44.7795 62.6175 44.1255 64.037 44.1255 65.9825V69.726C43.403 69.511 42.691 69.257 41.9915 68.961C39.542 67.9245 37.341 66.4405 35.45 64.5495C33.559 62.6585 32.075 60.4575 31.0385 58.008C29.967 55.474 29.4235 52.78 29.4235 50C29.4235 47.22 29.967 44.526 31.039 41.992C32.0755 39.5425 33.5595 37.3415 35.4505 35.4505C37.3415 33.5595 39.5425 32.0755 41.992 31.039C44.526 29.967 47.22 29.4235 50 29.4235C52.78 29.4235 55.474 29.967 58.008 31.039C60.458 32.0755 62.6585 33.5595 64.5495 35.4505C66.4405 37.3415 67.9245 39.5425 68.961 41.992C70.0325 44.5265 70.576 47.2205 70.576 50C70.576 52.7795 70.0325 55.474 68.9605 58.008C67.924 60.4575 66.44 62.6585 64.5495 64.5495Z" fill="#F7F7F7"/>
</svg>
