<svg width="100" height="100" viewBox="0 0 100 100" fill="none" xmlns="http://www.w3.org/2000/svg">
<path d="M50 98C76.5097 98 98 76.5097 98 50C98 23.4903 76.5097 2 50 2C23.4903 2 2 23.4903 2 50C2 76.5097 23.4903 98 50 98Z" fill="#5792C9"/>
<path d="M66.2695 25.5H33.7305C29.204 25.5 25.5 29.204 25.5 33.7305V66.2695C25.5 70.796 29.204 74.5 33.7305 74.5H66.2695C70.796 74.5 74.5 70.796 74.5 66.2695V33.7305C74.5 29.204 70.796 25.5 66.2695 25.5ZM43.875 65.3125H37.75V43.875H43.875V65.3125ZM40.8125 40.8125C39.121 40.8125 37.75 39.4415 37.75 37.75C37.75 36.0585 39.121 34.6875 40.8125 34.6875C42.504 34.6875 43.875 36.0585 43.875 37.75C43.875 39.4415 42.504 40.8125 40.8125 40.8125ZM65.3125 65.3125H59.1875V53.0625C59.1875 51.371 57.8165 50 56.125 50C54.4335 50 53.0625 51.371 53.0625 53.0625V65.3125H46.9375V43.875H53.0625V47.678C54.3255 45.943 56.257 43.875 58.422 43.875C62.228 43.875 65.313 47.303 65.313 51.531L65.3125 65.3125Z" fill="#F7F7F7"/>
</svg>
