<svg width="100" height="100" viewBox="0 0 100 100" fill="none" xmlns="http://www.w3.org/2000/svg">
<path d="M50 98C76.5097 98 98 76.5097 98 50C98 23.4903 76.5097 2 50 2C23.4903 2 2 23.4903 2 50C2 76.5097 23.4903 98 50 98Z" fill="#5792C9"/>
<path d="M74.5005 34.714C72.6975 35.518 70.7605 36.0615 68.727 36.306C70.802 35.0545 72.396 33.073 73.1475 30.7115C71.205 31.8705 69.054 32.7115 66.7635 33.1655C64.93 31.2 62.317 29.972 59.4255 29.972C53.8735 29.972 49.372 34.499 49.372 40.0835C49.372 40.876 49.4605 41.6475 49.632 42.388C41.277 41.9655 33.8695 37.9405 28.911 31.8225C28.046 33.3165 27.55 35.0535 27.55 36.9065C27.55 40.415 29.325 43.5105 32.0225 45.3235C30.3745 45.2715 28.824 44.8165 27.4695 44.059C27.4685 44.1015 27.4685 44.144 27.4685 44.1865C27.4685 49.086 30.934 53.1725 35.533 54.102C34.689 54.3335 33.8015 54.457 32.8845 54.457C32.2365 54.457 31.607 54.3935 30.993 54.2755C32.2725 58.2925 35.985 61.2165 40.384 61.298C36.9435 64.01 32.6085 65.6265 27.8985 65.6265C27.087 65.6265 26.287 65.5785 25.5005 65.4855C29.9495 68.3545 35.234 70.029 40.9105 70.029C59.4015 70.029 69.5135 54.6205 69.5135 41.2575C69.5135 40.819 69.5035 40.3835 69.484 39.949C71.448 38.5225 73.1525 36.741 74.5005 34.714Z" fill="#F7F7F7"/>
</svg>
